# This file uses centimeters as units for non-parametric coordinates.

mtllib waterBox.mtl
g default
v 0.231264 2.063585 -1.018089
v 0.231264 -1.046582 -1.018089
v 0.231264 -1.046582 1.075076
v 0.231264 2.063585 1.075075
v -0.231264 2.063585 -1.018089
v -0.231264 -1.046582 -1.018089
v -0.231264 -1.046582 1.075076
v -0.231264 2.063585 1.075075
v -0.231264 2.325230 -1.279734
v -0.231264 -1.308228 -1.279734
v -0.231264 -1.308228 1.336721
v -0.231264 2.325231 1.336721
v 0.231264 2.325230 -1.279734
v 0.231264 -1.308228 -1.279734
v 0.231264 -1.308228 1.336721
v 0.231264 2.325231 1.336721
v -0.249877 -1.008356 1.078083
v 0.249877 -1.008356 1.078083
v -0.249877 -0.817445 1.078083
v 0.249877 -0.817445 1.078083
v -0.249877 -0.364953 -1.023746
v 0.249877 -0.364953 -1.023746
v -0.249877 -1.008356 -1.023746
v 0.249877 -1.008356 -1.023746
vt 0.920234 0.977330
vt 0.931607 0.530174
vt 0.998008 0.532011
vt 0.986635 0.979167
vt 0.550778 0.841303
vt 0.570188 0.540875
vt 0.636590 0.545104
vt 0.617179 0.845532
vt 0.902726 0.530174
vt 0.914099 0.977330
vt 0.847698 0.979168
vt 0.836325 0.532011
vt 0.478241 0.845532
vt 0.458831 0.545104
vt 0.525232 0.540875
vt 0.544643 0.841303
vt 0.758635 0.487982
vt 0.742970 0.040826
vt 0.779206 0.001954
vt 0.797506 0.524346
vt 0.442542 0.050856
vt 0.403671 0.014493
vt 0.458207 0.498013
vt 0.421971 0.536884
vt 0.818442 0.526183
vt 0.805155 0.003792
vt 0.871557 0.001954
vt 0.884843 0.524346
vt 0.805926 0.540875
vt 0.830189 0.916410
vt 0.763788 0.920639
vt 0.739525 0.545104
vt 0.972546 0.003791
vt 0.959259 0.526183
vt 0.892858 0.524346
vt 0.906144 0.001954
vt 0.733389 0.545104
vt 0.709126 0.920639
vt 0.642725 0.916410
vt 0.666988 0.540875
vt 0.001992 0.524346
vt 0.020292 0.001954
vt 0.056528 0.040826
vt 0.040863 0.487982
vt 0.395827 0.014493
vt 0.356955 0.050856
vt 0.377527 0.536884
vt 0.341291 0.498013
vt 0.375000 0.000000
vt 0.625000 0.000000
vt 0.625000 0.250000
vt 0.375000 0.250000
vt 0.625000 0.500000
vt 0.375000 0.500000
vt 0.625000 0.750000
vt 0.375000 0.750000
vt 0.625000 1.000000
vt 0.375000 1.000000
vt 0.875000 0.000000
vt 0.875000 0.250000
vt 0.125000 0.000000
vt 0.125000 0.250000
vn 0.000000 0.000000 1.000000
vn 0.000000 0.000000 1.000000
vn 0.000000 0.000000 1.000000
vn 0.000000 0.000000 1.000000
vn 0.000000 1.000000 -0.000000
vn 0.000000 1.000000 -0.000000
vn 0.000000 1.000000 -0.000000
vn 0.000000 1.000000 -0.000000
vn 0.000000 -0.000000 -1.000000
vn 0.000000 -0.000000 -1.000000
vn 0.000000 -0.000000 -1.000000
vn 0.000000 -0.000000 -1.000000
vn 0.000000 -1.000000 0.000000
vn 0.000000 -1.000000 0.000000
vn 0.000000 -1.000000 0.000000
vn 0.000000 -1.000000 0.000000
vn -1.000000 0.000000 0.000000
vn -1.000000 -0.000000 0.000000
vn -1.000000 -0.000000 0.000000
vn -1.000000 0.000000 0.000000
vn -1.000000 0.000000 0.000000
vn -1.000000 0.000000 0.000000
vn -1.000000 -0.000000 0.000000
vn -1.000000 -0.000000 0.000000
vn 0.000000 -0.000000 -1.000000
vn 0.000000 -0.000000 -1.000000
vn 0.000000 -0.000000 -1.000000
vn 0.000000 -0.000000 -1.000000
vn 0.000000 -1.000000 0.000000
vn 0.000000 -1.000000 0.000000
vn 0.000000 -1.000000 0.000000
vn 0.000000 -1.000000 0.000000
vn 0.000000 0.000000 1.000000
vn 0.000000 0.000000 1.000000
vn 0.000000 0.000000 1.000000
vn 0.000000 0.000000 1.000000
vn 0.000000 1.000000 -0.000000
vn 0.000000 1.000000 -0.000000
vn 0.000000 1.000000 -0.000000
vn 0.000000 1.000000 -0.000000
vn 1.000000 -0.000000 0.000000
vn 1.000000 0.000000 0.000000
vn 1.000000 0.000000 0.000000
vn 1.000000 -0.000000 0.000000
vn 1.000000 -0.000000 0.000000
vn 1.000000 -0.000000 0.000000
vn 1.000000 0.000000 0.000000
vn 1.000000 0.000000 0.000000
vn 0.000000 0.000000 1.000000
vn 0.000000 0.000000 1.000000
vn 0.000000 0.000000 1.000000
vn 0.000000 0.000000 1.000000
vn 0.000000 0.977602 0.210463
vn 0.000000 0.977602 0.210463
vn 0.000000 0.977602 0.210463
vn 0.000000 0.977602 0.210463
vn 0.000000 0.000000 -1.000000
vn 0.000000 0.000000 -1.000000
vn 0.000000 0.000000 -1.000000
vn 0.000000 0.000000 -1.000000
vn 0.000000 -1.000000 0.000000
vn 0.000000 -1.000000 0.000000
vn 0.000000 -1.000000 0.000000
vn 0.000000 -1.000000 0.000000
vn 1.000000 0.000000 0.000000
vn 1.000000 0.000000 0.000000
vn 1.000000 0.000000 0.000000
vn 1.000000 0.000000 0.000000
vn -1.000000 0.000000 0.000000
vn -1.000000 0.000000 0.000000
vn -1.000000 0.000000 0.000000
vn -1.000000 0.000000 0.000000
s off
g polySurface1
usemtl initialShadingGroup
f 2/1/1 1/2/2 5/3/3 6/4/4
f 3/5/5 2/6/6 6/7/7 7/8/8
f 4/9/9 3/10/10 7/11/11 8/12/12
f 1/13/13 4/14/14 8/15/15 5/16/16
s 1
f 6/17/17 5/18/18 9/19/19 10/20/20
f 7/23/21 6/17/17 10/20/20 11/24/22
f 8/21/23 7/23/21 11/24/22 12/22/24
f 5/18/18 8/21/23 12/22/24 9/19/19
s off
f 10/25/25 9/26/26 13/27/27 14/28/28
f 11/29/29 10/30/30 14/31/31 15/32/32
f 12/33/33 11/34/34 15/35/35 16/36/36
f 9/37/37 12/38/38 16/39/39 13/40/40
s 2
f 14/41/41 13/42/42 1/43/43 2/44/44
f 15/47/45 14/41/41 2/44/44 3/48/46
f 16/45/47 15/47/45 3/48/46 4/46/48
f 13/42/42 16/45/47 4/46/48 1/43/43
s off
f 17/49/49 18/50/50 20/51/51 19/52/52
f 19/52/53 20/51/54 22/53/55 21/54/56
f 21/54/57 22/53/58 24/55/59 23/56/60
f 23/56/61 24/55/62 18/57/63 17/58/64
f 18/50/65 24/59/66 22/60/67 20/51/68
f 23/61/69 17/49/70 19/52/71 21/62/72
